<?xml version="1.0" encoding="UTF-8" standalone="no"?>
<svg
   xmlns:dc="http://purl.org/dc/elements/1.1/"
   xmlns:cc="http://creativecommons.org/ns#"
   xmlns:rdf="http://www.w3.org/1999/02/22-rdf-syntax-ns#"
   xmlns:svg="http://www.w3.org/2000/svg"
   xmlns="http://www.w3.org/2000/svg"
   id="svg53"
   viewBox="0 0 277.51749 67.324898"
   version="1.1"
   width="277.52"
   height="67.325">
  <metadata
     id="metadata57">
    <rdf:RDF>
      <cc:Work
         rdf:about="">
        <dc:format>image/svg+xml</dc:format>
        <dc:type
           rdf:resource="http://purl.org/dc/dcmitype/StillImage" />
        <dc:title></dc:title>
      </cc:Work>
    </rdf:RDF>
  </metadata>
  <defs
     id="defs7">
    <linearGradient
       x1="32.039"
       x2="32.039"
       gradientTransform="scale(1.2485 .80098)"
       y1="7.4905"
       gradientUnits="userSpaceOnUse"
       y2="71.569"
       id="a">
      <stop
         id="stop2"
         offset="0"
         stop-color="#BD74E6" />
      <stop
         id="stop4"
         offset="1"
         stop-color="#4B40C8" />
    </linearGradient>
    <linearGradient
       x1="32.039001"
       x2="32.039001"
       gradientTransform="matrix(1.2485001,0,0,0.80098002,7.3400818,1.0538862)"
       y1="7.4905"
       gradientUnits="userSpaceOnUse"
       y2="71.569"
       id="a-3">
      <stop
         style="stop-color:#d400aa;stop-opacity:1"
         id="stop2-6"
         offset="0"
         stop-color="#BD74E6" />
      <stop
         style="stop-color:#7137c8;stop-opacity:1"
         id="stop4-7"
         offset="1"
         stop-color="#4B40C8" />
    </linearGradient>
  </defs>
  <g
     id="g51"
     transform="translate(0 2.0003)"
     fill="none">
    <g
       id="g49">
      <flowRoot
         id="flowRoot17"
         fill="#000000"
         font-family="'Ubuntu Mono for Powerline'"
         line-height="125%"
         font-size="12.5px"
         xml:space="preserve"
         style="word-spacing:0px;letter-spacing:-32.12px;text-anchor:middle;text-align:center"><flowRegion
           id="flowRegion13"><rect
             id="rect11"
             height="48.982"
             x="96.75"
             width="212.53"
             y="-59.063" /></flowRegion><flowPara
           id="flowPara15" /></flowRoot>      <g
         id="g39"
         transform="translate(3.111 110.92)"
         fill="#000">
        <path
           id="path19"
           d="m109.49-68.882 0.14161 0.54871 0.1593-0.54871 8.1067-22.585h2.3895l-9.5935 25.771h-2.0886l-9.5935-25.771h2.3718l8.1067 22.585z" />
        <path
           id="path21"
           d="m134.91-65.696q-0.3186-0.90271-0.4071-2.6727-1.1151 1.4514-2.8497 2.2479-1.7169 0.77881-3.6462 0.77881-2.7612 0-4.4782-1.5399-1.6992-1.5399-1.6992-3.894 0-2.7966 2.3187-4.425 2.3364-1.6284 6.496-1.6284h3.8409v-2.1771q0-2.0532-1.2744-3.2214-1.2567-1.1859-3.6816-1.1859-2.2125 0-3.6639 1.1328t-1.4514 2.7258l-2.124-0.0177q0-2.2833 2.124-3.9471 2.124-1.6815 5.2216-1.6815 3.2037 0 5.0446 1.6107 1.8585 1.593 1.9116 4.4604v9.0625q0 2.7789 0.58411 4.1595v0.2124h-2.2656zm-6.6553-1.5222q2.124 0 3.7878-1.0266 1.6815-1.0266 2.4426-2.7435v-4.2126h-3.7878q-3.1683 0.0354-4.9561 1.1682-1.7877 1.1151-1.7877 3.0798 0 1.6107 1.1859 2.6727 1.2036 1.062 3.1152 1.062z" />
        <path
           id="path23"
           d="m144.59-65.696h-2.124v-27.188h2.124v27.188z" />
        <path
           id="path25"
           d="m157.78-65.342q-2.4426 0-4.425-1.2036-1.9647-1.2036-3.0621-3.3453-1.0974-2.1594-1.0974-4.8322v-0.76111q0-2.7612 1.062-4.9738 1.0797-2.2125 2.9913-3.4692 1.9116-1.2744 4.1418-1.2744 3.4869 0 5.5225 2.3895 2.0532 2.3718 2.0532 6.496v1.1859h-13.665v0.4071q0 3.2568 1.8585 5.434 1.8762 2.1594 4.7082 2.1594 1.6992 0 2.9913-0.61951 1.3098-0.61951 2.3718-1.9824l1.3275 1.0089q-2.3364 3.3807-6.7792 3.3807zm-0.38941-18.054q-2.3895 0-4.0356 1.7523-1.6284 1.7523-1.9824 4.7083h11.487v-0.2301q-0.0885-2.7612-1.5753-4.4958t-3.894-1.7346z" />
        <path
           id="path27"
           d="m172.42-89.751v4.903h3.9648v1.7346h-3.9648v12.762q0 1.593 0.5664 2.3718 0.58411 0.77881 1.9293 0.77881 0.531 0 1.7169-0.177l0.0885 1.7346q-0.83191 0.3009-2.2656 0.3009-2.1771 0-3.1683-1.2567-0.99121-1.2744-0.99121-3.7347v-12.78h-3.5223v-1.7346h3.5223v-4.903h2.124z" />
        <path
           id="path29"
           d="m193.27-69.962h10.939l-0.74341 4.2657h-16.125l4.4782-25.771h5.1862l-3.7347 21.506z" />
        <path
           id="path31"
           d="m211.55-65.696h-5.0268l3.3276-19.152h5.0269l-3.3276 19.152zm-1.1151-24.019q-0.0354-1.1859 0.77881-1.9647 0.81421-0.77881 1.9647-0.77881 1.1328-0.0354 1.9647 0.69031 0.83191 0.72571 0.86731 1.8762 0.0354 1.0974-0.74341 1.9116-0.76111 0.81421-2.0001 0.84961-1.1151 0.0354-1.9647-0.67261-0.83191-0.70801-0.86731-1.9116z" />
        <path
           id="path33"
           d="m223.66-84.865-0.4248 2.2656q2.301-2.6727 5.5756-2.6019 2.7081 0.0531 4.0002 1.9824t0.93811 5.3455l-2.0178 12.178h-4.9914l2.0532-12.231q0.0885-0.69031 0.0354-1.2567-0.2301-1.8054-2.2656-1.8585-1.9647-0.0708-3.5223 1.8231l-2.3895 13.523h-4.9914l3.3276-19.152 4.6728-0.0177z" />
        <path
           id="path35"
           d="m247.52-67.678q-2.124 2.3895-5.2747 2.3364-2.7612-0.0354-4.1772-1.9824t-1.0974-5.1331l2.0709-12.39h4.9915l-2.1063 12.443q-0.0708 0.58411-0.0177 1.0974 0.177 1.77 1.9647 1.8231 2.3187 0.0708 3.8409-1.7877l2.3895-13.576h5.0268l-3.3276 19.152h-4.6552l0.37171-1.9824z" />
        <path
           id="path37"
           d="m264.78-79.166 4.0179-5.6818h5.611l-6.9385 9.6289 3.8763 9.5227h-5.0623l-2.3541-5.9827-4.2304 5.9827h-5.6464l7.2217-10.018-3.6993-9.1333h5.0622l2.1417 5.6818z" />
      </g>
      <flowRoot
         id="flowRoot47"
         fill="#000000"
         font-family="'Ubuntu Mono for Powerline'"
         line-height="125%"
         font-size="12.5px"
         xml:space="preserve"
         style="word-spacing:0px;letter-spacing:-32.12px;text-anchor:middle;text-align:center"><flowRegion
           id="flowRegion43"><rect
             id="rect41"
             height="30.766"
             x="168.81"
             width="83.391"
             y="-88.209" /></flowRegion><flowPara
           id="flowPara45" /></flowRoot>    </g>
    <path
       style="fill:url(#a-3);stroke-width:1.00000012"
       id="path9"
       d="m 7.3400818,12.723887 c 0,-5.5270006 3.5850002,-7.3200007 7.9980012,-4.0100005 L 47.340084,32.716887 79.342081,8.7168865 c 4.418,-3.3160002 7.998,-1.5170001 7.998,4.0070005 v 39.980001 c 0,5.53 -3.585,7.32 -7.998,4.01 L 47.340084,32.716887 15.338083,56.716888 c -4.418001,3.314 -7.9980012,1.515 -7.9980012,-4.01 V 12.726887 Z" />
  </g>
</svg>
